<?xml version="1.0" standalone="no"?><!DOCTYPE svg PUBLIC "-//W3C//DTD SVG 1.1//EN" "http://www.w3.org/Graphics/SVG/1.1/DTD/svg11.dtd"><svg t="1564037506282" class="icon" viewBox="0 0 1098 1024" version="1.1" xmlns="http://www.w3.org/2000/svg" p-id="15868" xmlns:xlink="http://www.w3.org/1999/xlink" width="214.453125" height="200"><defs><style type="text/css"></style></defs><path d="M991.159596 11.377778H102.4c-46.416162 0-84.428283 35.038384-84.428283 82.230303v835.620202c0 47.062626 38.012121 85.591919 84.428283 85.591919h895.612121c46.545455 0 80.937374-38.529293 80.937374-85.591919V93.478788c0.129293-47.062626-41.373737-82.10101-87.789899-82.10101zM350.771717 145.713131c73.567677 0 133.171717 60.379798 133.171717 134.852526 0 74.343434-59.60404 134.723232-133.171717 134.723232-73.69697 0-133.30101-60.379798-133.30101-134.723232 0-74.472727 59.733333-134.852525 133.30101-134.852526zM190.707071 883.587879c-9.69697 0-19.523232-3.361616-27.410101-10.214142-17.842424-15.385859-19.781818-42.537374-4.654546-60.379798l196.39596-252.379798c14.480808-17.19596 39.305051-19.911111 57.276768-6.593939l115.458585 126.707071 284.315152-348.961616c14.480808-18.488889 89.470707-105.632323 134.723232-6.852526 0.129293-0.129293 0.129293 111.709091 0.258586 245.010101 0.129293 139.248485 0.129293 313.535354 0.129293 313.535354l-756.492929 0.129293z m0 0" p-id="15869" fill="#bbbbbb"></path></svg>